<?xml version="1.0" encoding="UTF-8"?><svg xmlns="http://www.w3.org/2000/svg" xmlns:xlink="http://www.w3.org/1999/xlink" contentScriptType="text/ecmascript" width="90pt" zoomAndPan="magnify" contentStyleType="text/css" viewBox="0 0 90 30.000001" height="30.000001pt" preserveAspectRatio="xMidYMid meet" version="1.2"><defs><g/></defs><g xml:id="surface1" id="surface1"><g style="fill:rgb(100%,100%,100%);fill-opacity:1;"><g transform="translate(21.497478, 22.257699)"><path style="stroke:none;" d="M 3.3125 0.1875 C 2.375 0.1875 1.90625 -0.289062 1.90625 -1.25 L 1.90625 -15.796875 C 1.90625 -16.765625 2.390625 -17.25 3.359375 -17.25 C 3.765625 -17.25 4.082031 -17.171875 4.3125 -17.015625 C 4.550781 -16.859375 4.765625 -16.597656 4.953125 -16.234375 L 10.546875 -5.90625 L 16.140625 -16.234375 C 16.328125 -16.597656 16.53125 -16.859375 16.75 -17.015625 C 16.976562 -17.171875 17.296875 -17.25 17.703125 -17.25 C 18.640625 -17.25 19.109375 -16.765625 19.109375 -15.796875 L 19.109375 -1.25 C 19.109375 -0.289062 18.640625 0.1875 17.703125 0.1875 C 16.765625 0.1875 16.296875 -0.289062 16.296875 -1.25 L 16.296875 -11.484375 L 11.75 -3.1875 C 11.59375 -2.914062 11.425781 -2.710938 11.25 -2.578125 C 11.070312 -2.453125 10.828125 -2.390625 10.515625 -2.390625 C 10.210938 -2.390625 9.960938 -2.457031 9.765625 -2.59375 C 9.578125 -2.738281 9.410156 -2.9375 9.265625 -3.1875 L 4.71875 -11.4375 L 4.71875 -1.25 C 4.71875 -0.289062 4.25 0.1875 3.3125 0.1875 Z M 3.3125 0.1875 "/></g></g><g style="fill:rgb(100%,100%,100%);fill-opacity:1;"><g transform="translate(42.494157, 22.257699)"><path style="stroke:none;" d="M 3.5 0 C 2.40625 0 1.859375 -0.546875 1.859375 -1.640625 L 1.859375 -15.40625 C 1.859375 -16.5 2.40625 -17.046875 3.5 -17.046875 L 12.140625 -17.046875 C 12.984375 -17.046875 13.40625 -16.644531 13.40625 -15.84375 C 13.40625 -15 12.984375 -14.578125 12.140625 -14.578125 L 4.84375 -14.578125 L 4.84375 -9.890625 L 11.609375 -9.890625 C 12.453125 -9.890625 12.875 -9.476562 12.875 -8.65625 C 12.875 -7.832031 12.453125 -7.421875 11.609375 -7.421875 L 4.84375 -7.421875 L 4.84375 -2.46875 L 12.140625 -2.46875 C 12.984375 -2.46875 13.40625 -2.054688 13.40625 -1.234375 C 13.40625 -0.410156 12.984375 0 12.140625 0 Z M 3.5 0 "/></g></g><g style="fill:rgb(100%,100%,100%);fill-opacity:1;"><g transform="translate(56.935419, 22.257699)"><path style="stroke:none;" d="M 3.453125 0.1875 C 2.390625 0.1875 1.859375 -0.359375 1.859375 -1.453125 L 1.859375 -15.40625 C 1.859375 -16.5 2.40625 -17.046875 3.5 -17.046875 L 11.953125 -17.046875 C 12.785156 -17.046875 13.203125 -16.644531 13.203125 -15.84375 C 13.203125 -15 12.785156 -14.578125 11.953125 -14.578125 L 4.953125 -14.578125 L 4.953125 -9.765625 L 11.4375 -9.765625 C 12.28125 -9.765625 12.703125 -9.363281 12.703125 -8.5625 C 12.703125 -7.71875 12.28125 -7.296875 11.4375 -7.296875 L 4.953125 -7.296875 L 4.953125 -1.453125 C 4.953125 -0.359375 4.453125 0.1875 3.453125 0.1875 Z M 3.453125 0.1875 "/></g></g></g></svg>